<svg width="200" height="40" viewBox="0 0 200 40" fill="none" xmlns="http://www.w3.org/2000/svg">
<rect width="7.98361" height="41.2069" rx="3.9918" transform="matrix(0.91762 0.397459 -0.448653 0.893706 18.4876 -1.14441e-05)" fill="url(#paint0_linear_42_246)"/>
<path d="M22.2216 13.1418C22.6686 13.0702 23.072 12.7357 23.131 12.306C23.2549 11.4048 21.9741 11.0731 21.5508 11.8967L8.9395 36.4322C8.57243 37.1463 7.47755 37.0035 7.37742 36.2284C7.34885 36.0072 7.22444 35.7997 7.13812 35.5946C6.81316 34.8227 6.57952 32.1465 11.0026 23.6556C15.4769 15.0665 20.3417 13.4431 22.2216 13.1418Z" fill="url(#paint1_linear_42_246)"/>
<g filter="url(#filter0_d_42_246)">
<rect width="7.98361" height="32.3438" rx="3.9918" transform="matrix(0.91762 -0.397459 0.448653 0.893706 15.1865 3.17315)" fill="url(#paint2_linear_42_246)"/>
</g>
<rect width="7.98361" height="41.2069" rx="3.9918" transform="matrix(0.91762 -0.397459 0.448653 0.893706 15.1865 3.17315)" fill="url(#paint3_linear_42_246)"/>
<path d="M60.3457 28.1367C59.1061 28.1367 58.1035 27.8314 57.3379 27.2207C56.5723 26.61 56.1895 25.7031 56.1895 24.5C56.1895 23.2331 56.5768 22.2806 57.3516 21.6426C58.1263 20.9954 59.0697 20.5807 60.1816 20.3984C61.3027 20.207 62.6608 20.0977 64.2559 20.0703V18.9219C64.2559 18.3112 64.0462 17.8236 63.627 17.459C63.2168 17.0853 62.5378 16.8984 61.5898 16.8984C60.8698 16.8984 60.2363 16.985 59.6895 17.1582C59.1517 17.3223 58.6458 17.5228 58.1719 17.7598C57.9714 17.86 57.8483 17.9102 57.8027 17.9102C57.6934 17.9102 57.5703 17.8327 57.4336 17.6777C57.306 17.5137 57.1921 17.3314 57.0918 17.1309C57.0007 16.9303 56.9551 16.7845 56.9551 16.6934C56.9551 16.4837 57.1693 16.2559 57.5977 16.0098C58.0352 15.7637 58.6048 15.5586 59.3066 15.3945C60.0085 15.2305 60.7422 15.1484 61.5078 15.1484C63.0299 15.1484 64.2103 15.4811 65.0488 16.1465C65.8874 16.8118 66.3066 17.7461 66.3066 18.9492V24.4043C66.3066 25.4616 66.3522 26.2272 66.4434 26.7012C66.5436 27.166 66.5938 27.4212 66.5938 27.4668C66.5938 27.6673 66.4388 27.8132 66.1289 27.9043C65.8281 27.9863 65.5456 28.0273 65.2812 28.0273C65.0625 28.0273 64.8984 27.9043 64.7891 27.6582C64.6888 27.4121 64.5885 27.0566 64.4883 26.5918L64.4336 26.3184C63.9323 26.8743 63.3398 27.3164 62.6562 27.6445C61.9818 27.9727 61.2116 28.1367 60.3457 28.1367ZM60.4551 26.373C61.2572 26.373 61.9408 26.2272 62.5059 25.9355C63.071 25.6439 63.6543 25.2292 64.2559 24.6914V21.8203C63.0527 21.8294 62.0638 21.8796 61.2891 21.9707C60.5143 22.0618 59.8353 22.2943 59.252 22.668C58.6686 23.0326 58.377 23.6022 58.377 24.377C58.377 25.0241 58.5501 25.5208 58.8965 25.8672C59.252 26.2044 59.7715 26.373 60.4551 26.373ZM80.3225 28.1367C78.3082 28.1367 76.8088 27.6126 75.8245 26.5645C74.8492 25.5072 74.3616 23.8939 74.3616 21.7246C74.3616 19.5736 74.8401 17.9421 75.7971 16.8301C76.7541 15.709 78.1623 15.1484 80.0217 15.1484C81.6806 15.1484 82.9293 15.6862 83.7678 16.7617C84.6155 17.8372 85.0393 19.4141 85.0393 21.4922C85.0393 21.5833 84.9892 21.7109 84.8889 21.875C84.7978 22.0299 84.6838 22.1712 84.5471 22.2988C84.4195 22.4173 84.3101 22.4766 84.219 22.4766H76.5491C76.6493 23.8346 76.9957 24.8281 77.5881 25.457C78.1897 26.0768 79.092 26.3867 80.2952 26.3867C80.9696 26.3867 81.5484 26.3047 82.0315 26.1406C82.5237 25.9766 82.9976 25.776 83.4534 25.5391C83.4989 25.5208 83.5673 25.4889 83.6584 25.4434C83.7496 25.3978 83.8134 25.375 83.8498 25.375C83.9501 25.375 84.064 25.457 84.1916 25.6211C84.3284 25.776 84.4423 25.9538 84.5334 26.1543C84.6337 26.3457 84.6838 26.487 84.6838 26.5781C84.6838 26.7786 84.4833 27.002 84.0823 27.248C83.6812 27.4941 83.1435 27.7038 82.469 27.877C81.8036 28.0501 81.0881 28.1367 80.3225 28.1367ZM82.8655 20.7266C82.8655 18.1745 81.8948 16.8984 79.9534 16.8984C77.8661 16.8984 76.7314 18.1745 76.5491 20.7266H82.8655ZM92.3423 28C92.242 28 92.1281 27.8542 92.0005 27.5625C91.8729 27.2617 91.8091 26.9928 91.8091 26.7559C91.8091 26.6647 91.8318 26.5736 91.8774 26.4824L99.0005 17.0352H92.7798C92.6066 17.0352 92.4835 16.9805 92.4106 16.8711C92.3377 16.7526 92.3013 16.5658 92.3013 16.3105V16.0098C92.3013 15.7546 92.3377 15.5723 92.4106 15.4629C92.4835 15.3444 92.6066 15.2852 92.7798 15.2852H101.311C101.42 15.2852 101.53 15.4355 101.639 15.7363C101.749 16.0371 101.803 16.306 101.803 16.543C101.803 16.625 101.785 16.7116 101.749 16.8027L94.6528 26.25H101.338C101.512 26.25 101.635 26.3092 101.708 26.4277C101.78 26.5371 101.817 26.7194 101.817 26.9746V27.2754C101.817 27.5215 101.78 27.7038 101.708 27.8223C101.635 27.9408 101.512 28 101.338 28H92.3423ZM113.303 28.1367C112.492 28.1367 111.768 27.8906 111.13 27.3984C110.492 26.9062 110.173 26.0358 110.173 24.7871V17.0352H108.956C108.783 17.0352 108.655 16.9805 108.573 16.8711C108.5 16.7526 108.464 16.5658 108.464 16.3105V16.0098C108.464 15.7546 108.5 15.5723 108.573 15.4629C108.655 15.3444 108.783 15.2852 108.956 15.2852H110.173L110.46 12.7422C110.478 12.3867 110.738 12.209 111.239 12.209H111.471C111.727 12.209 111.913 12.2546 112.032 12.3457C112.15 12.4277 112.21 12.5599 112.21 12.7422V15.2852H114.247C114.42 15.2852 114.543 15.3444 114.616 15.4629C114.698 15.5723 114.739 15.7546 114.739 16.0098V16.3105C114.739 16.5658 114.698 16.7526 114.616 16.8711C114.543 16.9805 114.42 17.0352 114.247 17.0352H112.21V24.5957C112.21 25.2611 112.324 25.7259 112.551 25.9902C112.788 26.2546 113.107 26.3867 113.509 26.3867C113.818 26.3867 114.055 26.3685 114.219 26.332C114.393 26.2956 114.507 26.2773 114.561 26.2773C114.707 26.2773 114.826 26.4232 114.917 26.7148C115.017 27.0065 115.067 27.2389 115.067 27.4121C115.067 27.8952 114.479 28.1367 113.303 28.1367ZM123.874 28.041C123.227 28.041 122.903 27.8633 122.903 27.5078V10.2539C122.903 9.89844 123.227 9.7207 123.874 9.7207H123.97C124.626 9.7207 124.954 9.89844 124.954 10.2539V16.8164C125.428 16.3333 125.984 15.9368 126.622 15.627C127.26 15.3079 127.939 15.1484 128.659 15.1484C129.68 15.1484 130.578 15.4355 131.353 16.0098C132.136 16.584 132.528 17.6048 132.528 19.0723V27.5078C132.528 27.8633 132.205 28.041 131.558 28.041H131.462C130.806 28.041 130.478 27.8633 130.478 27.5078V19.2773C130.478 18.5391 130.268 17.9603 129.849 17.541C129.429 17.1217 128.814 16.9121 128.003 16.9121C127.465 16.9121 126.968 17.0397 126.513 17.2949C126.066 17.5501 125.692 17.8281 125.392 18.1289C125.1 18.4206 124.954 18.5846 124.954 18.6211V27.5078C124.954 27.8633 124.626 28.041 123.97 28.041H123.874ZM144.521 28.1367C143.281 28.1367 142.279 27.8314 141.513 27.2207C140.747 26.61 140.364 25.7031 140.364 24.5C140.364 23.2331 140.752 22.2806 141.527 21.6426C142.301 20.9954 143.245 20.5807 144.357 20.3984C145.478 20.207 146.836 20.0977 148.431 20.0703V18.9219C148.431 18.3112 148.221 17.8236 147.802 17.459C147.392 17.0853 146.713 16.8984 145.765 16.8984C145.045 16.8984 144.411 16.985 143.864 17.1582C143.327 17.3223 142.821 17.5228 142.347 17.7598C142.146 17.86 142.023 17.9102 141.978 17.9102C141.868 17.9102 141.745 17.8327 141.609 17.6777C141.481 17.5137 141.367 17.3314 141.267 17.1309C141.176 16.9303 141.13 16.7845 141.13 16.6934C141.13 16.4837 141.344 16.2559 141.773 16.0098C142.21 15.7637 142.78 15.5586 143.482 15.3945C144.183 15.2305 144.917 15.1484 145.683 15.1484C147.205 15.1484 148.385 15.4811 149.224 16.1465C150.062 16.8118 150.482 17.7461 150.482 18.9492V24.4043C150.482 25.4616 150.527 26.2272 150.618 26.7012C150.719 27.166 150.769 27.4212 150.769 27.4668C150.769 27.6673 150.614 27.8132 150.304 27.9043C150.003 27.9863 149.721 28.0273 149.456 28.0273C149.238 28.0273 149.073 27.9043 148.964 27.6582C148.864 27.4121 148.764 27.0566 148.663 26.5918L148.609 26.3184C148.107 26.8743 147.515 27.3164 146.831 27.6445C146.157 27.9727 145.387 28.1367 144.521 28.1367ZM144.63 26.373C145.432 26.373 146.116 26.2272 146.681 25.9355C147.246 25.6439 147.829 25.2292 148.431 24.6914V21.8203C147.228 21.8294 146.239 21.8796 145.464 21.9707C144.689 22.0618 144.01 22.2943 143.427 22.668C142.844 23.0326 142.552 23.6022 142.552 24.377C142.552 25.0241 142.725 25.5208 143.071 25.8672C143.427 26.2044 143.946 26.373 144.63 26.373ZM162.939 28.1367C162.128 28.1367 161.403 27.8906 160.765 27.3984C160.127 26.9062 159.808 26.0358 159.808 24.7871V17.0352H158.591C158.418 17.0352 158.29 16.9805 158.208 16.8711C158.136 16.7526 158.099 16.5658 158.099 16.3105V16.0098C158.099 15.7546 158.136 15.5723 158.208 15.4629C158.29 15.3444 158.418 15.2852 158.591 15.2852H159.808L160.095 12.7422C160.113 12.3867 160.373 12.209 160.874 12.209H161.107C161.362 12.209 161.549 12.2546 161.667 12.3457C161.786 12.4277 161.845 12.5599 161.845 12.7422V15.2852H163.882C164.055 15.2852 164.178 15.3444 164.251 15.4629C164.333 15.5723 164.374 15.7546 164.374 16.0098V16.3105C164.374 16.5658 164.333 16.7526 164.251 16.8711C164.178 16.9805 164.055 17.0352 163.882 17.0352H161.845V24.5957C161.845 25.2611 161.959 25.7259 162.187 25.9902C162.424 26.2546 162.743 26.3867 163.144 26.3867C163.454 26.3867 163.691 26.3685 163.855 26.332C164.028 26.2956 164.142 26.2773 164.197 26.2773C164.343 26.2773 164.461 26.4232 164.552 26.7148C164.652 27.0065 164.703 27.2389 164.703 27.4121C164.703 27.8952 164.115 28.1367 162.939 28.1367ZM173.386 12.2227C172.739 12.2227 172.416 12.0449 172.416 11.6895V10.2539C172.416 9.89844 172.739 9.7207 173.386 9.7207H173.674C174.33 9.7207 174.658 9.89844 174.658 10.2539V11.6895C174.658 12.0449 174.33 12.2227 173.674 12.2227H173.386ZM173.482 28.041C172.835 28.041 172.511 27.8633 172.511 27.5078V15.7773C172.511 15.4219 172.835 15.2441 173.482 15.2441H173.578C174.234 15.2441 174.562 15.4219 174.562 15.7773V27.5078C174.562 27.8633 174.234 28.041 173.578 28.041H173.482ZM188.756 28.1367C186.741 28.1367 185.238 27.6217 184.244 26.5918C183.26 25.5527 182.768 23.8848 182.768 21.5879C182.768 19.2637 183.319 17.6094 184.422 16.625C185.525 15.6406 186.896 15.1484 188.537 15.1484C189.148 15.1484 189.736 15.2031 190.301 15.3125C190.866 15.4128 191.322 15.5495 191.668 15.7227C192.014 15.8958 192.187 16.0781 192.187 16.2695C192.187 16.3971 192.142 16.5658 192.051 16.7754C191.969 16.985 191.864 17.1719 191.736 17.3359C191.618 17.4909 191.508 17.5684 191.408 17.5684C191.381 17.5684 191.34 17.5592 191.285 17.541C191.23 17.5137 191.18 17.4909 191.135 17.4727C190.314 17.0898 189.43 16.8984 188.482 16.8984C187.361 16.8984 186.495 17.2676 185.885 18.0059C185.274 18.735 184.969 19.9108 184.969 21.5332C184.969 22.6816 185.092 23.6113 185.338 24.3223C185.584 25.0241 185.98 25.5436 186.527 25.8809C187.083 26.2181 187.822 26.3867 188.742 26.3867C189.754 26.3867 190.665 26.1771 191.476 25.7578C191.559 25.7396 191.618 25.7214 191.654 25.7031C191.7 25.6758 191.732 25.6621 191.75 25.6621C191.85 25.6621 191.964 25.7396 192.092 25.8945C192.219 26.0495 192.329 26.2272 192.42 26.4277C192.52 26.6283 192.57 26.7878 192.57 26.9062C192.57 27.0977 192.397 27.2891 192.051 27.4805C191.704 27.6719 191.235 27.8314 190.643 27.959C190.059 28.0775 189.43 28.1367 188.756 28.1367Z" fill="black"/>
<defs>
<filter id="filter0_d_42_246" x="12.5621" y="1.2487" width="27.0858" height="37.5816" filterUnits="userSpaceOnUse" color-interpolation-filters="sRGB">
<feFlood flood-opacity="0" result="BackgroundImageFix"/>
<feColorMatrix in="SourceAlpha" type="matrix" values="0 0 0 0 0 0 0 0 0 0 0 0 0 0 0 0 0 0 127 0" result="hardAlpha"/>
<feOffset dy="4"/>
<feGaussianBlur stdDeviation="2"/>
<feComposite in2="hardAlpha" operator="out"/>
<feColorMatrix type="matrix" values="0 0 0 0 0 0 0 0 0 0 0 0 0 0 0 0 0 0 0.25 0"/>
<feBlend mode="normal" in2="BackgroundImageFix" result="effect1_dropShadow_42_246"/>
<feBlend mode="normal" in="SourceGraphic" in2="effect1_dropShadow_42_246" result="shape"/>
</filter>
<linearGradient id="paint0_linear_42_246" x1="3.9918" y1="0" x2="3.9918" y2="41.2069" gradientUnits="userSpaceOnUse">
<stop stop-color="#D72F4D"/>
<stop offset="0.495192" stop-color="#FF385C"/>
</linearGradient>
<linearGradient id="paint1_linear_42_246" x1="11.2519" y1="23.2964" x2="4.53966" y2="38.7932" gradientUnits="userSpaceOnUse">
<stop stop-color="#D72F4D"/>
<stop offset="0.769231" stop-color="#FF385C"/>
</linearGradient>
<linearGradient id="paint2_linear_42_246" x1="3.9918" y1="0" x2="3.9918" y2="32.3438" gradientUnits="userSpaceOnUse">
<stop offset="0.495192" stop-color="#FF385C"/>
<stop offset="1" stop-color="#D72F4D"/>
</linearGradient>
<linearGradient id="paint3_linear_42_246" x1="3.9918" y1="0" x2="3.9918" y2="41.2069" gradientUnits="userSpaceOnUse">
<stop offset="0.495192" stop-color="#FF385C"/>
<stop offset="1" stop-color="#D72F4D"/>
</linearGradient>
</defs>
</svg>
